<svg xmlns="http://www.w3.org/2000/svg" version="1.1" xmlns:xlink="http://www.w3.org/1999/xlink"  >
<g  >
<g style="stroke:#eee; stroke-width:16; "  >
<line y1="-68.4" x2="1318.0" x1="0" y2="-68.4"  />
<line y1="39.6" x2="1318.0" x1="0" y2="39.6"  />
<line y1="147.6" x2="1318.0" x1="0" y2="147.6"  />
<line y1="255.6" x2="1318.0" x1="0" y2="255.6"  />
<line y1="363.6" x2="1318.0" x1="0" y2="363.6"  />
<line y1="471.6" x2="1318.0" x1="0" y2="471.6"  />
<line y1="579.6" x2="1318.0" x1="0" y2="579.6"  />
<line y1="687.6" x2="1318.0" x1="0" y2="687.6"  />
<line y1="795.6" x2="1318.0" x1="0" y2="795.6"  />
<line y1="903.6" x2="1318.0" x1="0" y2="903.6"  />
<line y1="1011.6" x2="1318.0" x1="0" y2="1011.6"  />
<line y1="1119.6" x2="1318.0" x1="0" y2="1119.6"  />
<line y1="1227.6" x2="1318.0" x1="0" y2="1227.6"  />
<line y1="1335.6" x2="1318.0" x1="0" y2="1335.6"  />
<line y1="1443.6" x2="1318.0" x1="0" y2="1443.6"  />
<line y1="1551.6" x2="1318.0" x1="0" y2="1551.6"  />
<line y1="1659.6" x2="1318.0" x1="0" y2="1659.6"  />
<line y1="1767.6" x2="1318.0" x1="0" y2="1767.6"  />
<line y1="1875.6" x2="1318.0" x1="0" y2="1875.6"  />
<line y1="1983.6" x2="1318.0" x1="0" y2="1983.6"  />
<line y1="2091.6" x2="1318.0" x1="0" y2="2091.6"  />
<line y1="2199.6" x2="1318.0" x1="0" y2="2199.6"  />
<line y1="2307.6" x2="1318.0" x1="0" y2="2307.6"  />
<line y1="2415.6" x2="1318.0" x1="0" y2="2415.6"  />
<line y1="2523.6" x2="1318.0" x1="0" y2="2523.6"  />
<line y1="2631.6" x2="1318.0" x1="0" y2="2631.6"  />
<line y1="2739.6" x2="1318.0" x1="0" y2="2739.6"  />
<line y1="2847.6" x2="1318.0" x1="0" y2="2847.6"  />
<line y1="2955.6" x2="1318.0" x1="0" y2="2955.6"  />
<line y1="3063.6" x2="1318.0" x1="0" y2="3063.6"  />
<line y1="3171.6" x2="1318.0" x1="0" y2="3171.6"  />
<line y1="3279.6" x2="1318.0" x1="0" y2="3279.6"  />
<line y1="3387.6" x2="1318.0" x1="0" y2="3387.6"  />
<line y1="3495.6" x2="1318.0" x1="0" y2="3495.6"  />
<line y1="3603.6" x2="1318.0" x1="0" y2="3603.6"  />
<line y1="3711.6" x2="1318.0" x1="0" y2="3711.6"  />
<line y1="3819.6" x2="1318.0" x1="0" y2="3819.6"  />
<line y1="3927.6" x2="1318.0" x1="0" y2="3927.6"  />
<line y1="4035.6" x2="1318.0" x1="0" y2="4035.6"  />
</g>
<g style="font-size:16px; font-family:Monospace; fill:#b8b8bf; " xml:space="preserve"  >
<text y="-62.4" x="1323.0"  >
  33:00</text>
<text y="45.6" x="1323.0"  >
  34:00</text>
<text y="153.6" x="1323.0"  >
  35:00</text>
<text y="261.6" x="1323.0"  >
  36:00</text>
<text y="369.6" x="1323.0"  >
  37:00</text>
<text y="477.6" x="1323.0"  >
  38:00</text>
<text y="585.6" x="1323.0"  >
  39:00</text>
<text y="693.6" x="1323.0"  >
  40:00</text>
<text y="801.6" x="1323.0"  >
  41:00</text>
<text y="909.6" x="1323.0"  >
  42:00</text>
<text y="1017.6" x="1323.0"  >
  43:00</text>
<text y="1125.6" x="1323.0"  >
  44:00</text>
<text y="1233.6" x="1323.0"  >
  45:00</text>
<text y="1341.6" x="1323.0"  >
  46:00</text>
<text y="1449.6" x="1323.0"  >
  47:00</text>
<text y="1557.6" x="1323.0"  >
  48:00</text>
<text y="1665.6" x="1323.0"  >
  49:00</text>
<text y="1773.6" x="1323.0"  >
  50:00</text>
<text y="1881.6" x="1323.0"  >
  51:00</text>
<text y="1989.6" x="1323.0"  >
  52:00</text>
<text y="2097.6" x="1323.0"  >
  53:00</text>
<text y="2205.6" x="1323.0"  >
  54:00</text>
<text y="2313.6" x="1323.0"  >
  55:00</text>
<text y="2421.6" x="1323.0"  >
  56:00</text>
<text y="2529.6" x="1323.0"  >
  57:00</text>
<text y="2637.6" x="1323.0"  >
  58:00</text>
<text y="2745.6" x="1323.0"  >
  59:00</text>
<text y="2853.6" x="1323.0"  >
1:00:00</text>
<text y="2961.6" x="1323.0"  >
1:01:00</text>
<text y="3069.6" x="1323.0"  >
1:02:00</text>
<text y="3177.6" x="1323.0"  >
1:03:00</text>
<text y="3285.6" x="1323.0"  >
1:04:00</text>
<text y="3393.6" x="1323.0"  >
1:05:00</text>
<text y="3501.6" x="1323.0"  >
1:06:00</text>
<text y="3609.6" x="1323.0"  >
1:07:00</text>
<text y="3717.6" x="1323.0"  >
1:08:00</text>
<text y="3825.6" x="1323.0"  >
1:09:00</text>
<text y="3933.6" x="1323.0"  >
1:10:00</text>
<text y="4041.6" x="1323.0"  >
1:11:00</text>
</g>
</g>
<g style="stroke:#bbb; stroke-width:2; stroke-dasharray:2,4; "  />
<g style="stroke:#bbb; stroke-width:2; "  >
<path d="M 203.0,95.4 C 253.625  95.4  321.125  151.2  371.75  151.2 " fill="none"  />
<path d="M 203.0,201.6 C 253.625  201.6  321.125  300.6  371.75  300.6 " fill="none"  />
<path d="M 203.0,450.0 C 253.625  450.0  321.125  669.6  371.75  669.6 " fill="none"  />
<path d="M 203.0,734.4 C 253.625  734.4  321.125  797.4  371.75  797.4 " fill="none"  />
<path d="M 203.0,1031.4 C 253.625  1031.4  321.125  986.4  371.75  986.4 " fill="none"  />
<path d="M 203.0,1398.6 C 253.625  1398.6  321.125  1468.8  371.75  1468.8 " fill="none"  />
<path d="M 203.0,2345.4 C 253.625  2345.4  321.125  1575.0  371.75  1575.0 " fill="none"  />
<path d="M 203.0,1508.4 C 253.625  1508.4  321.125  1638.0  371.75  1638.0 " fill="none"  />
<path d="M 203.0,2280.6 C 253.625  2280.6  321.125  1877.4  371.75  1877.4 " fill="none"  />
<path d="M 203.0,1953.0 C 253.625  1953.0  321.125  1969.2  371.75  1969.2 " fill="none"  />
<path d="M 203.0,1411.2 C 253.625  1411.2  321.125  2070.0  371.75  2070.0 " fill="none"  />
<path d="M 203.0,1857.8 C 253.625  1857.8  321.125  2111.4  371.75  2111.4 " fill="none"  />
<path d="M 203.0,1846.8 C 253.625  1846.8  321.125  2122.4  371.75  2122.4 " fill="none"  />
<path d="M 203.0,2250.0 C 253.625  2250.0  321.125  2133.4  371.75  2133.4 " fill="none"  />
<path d="M 203.0,1992.6 C 253.625  1992.6  321.125  2144.4  371.75  2144.4 " fill="none"  />
<path d="M 203.0,2431.8 C 253.625  2431.8  321.125  2316.6  371.75  2316.6 " fill="none"  />
<path d="M 203.0,2673.2 C 253.625  2673.2  321.125  2327.6  371.75  2327.6 " fill="none"  />
<path d="M 203.0,2325.6 C 253.625  2325.6  321.125  2422.8  371.75  2422.8 " fill="none"  />
<path d="M 203.0,2662.2 C 253.625  2662.2  321.125  2433.8  371.75  2433.8 " fill="none"  />
<path d="M 203.0,3211.6 C 253.625  3211.6  321.125  2471.4  371.75  2471.4 " fill="none"  />
<path d="M 203.0,2620.8 C 253.625  2620.8  321.125  2514.6  371.75  2514.6 " fill="none"  />
<path d="M 203.0,2568.6 C 253.625  2568.6  321.125  2851.2  371.75  2851.2 " fill="none"  />
<path d="M 203.0,2867.4 C 253.625  2867.4  321.125  3061.8  371.75  3061.8 " fill="none"  />
<path d="M 203.0,3189.6 C 253.625  3189.6  321.125  3148.2  371.75  3148.2 " fill="none"  />
<path d="M 203.0,3200.6 C 253.625  3200.6  321.125  3159.2  371.75  3159.2 " fill="none"  />
<path d="M 203.0,3159.0 C 253.625  3159.0  321.125  3170.2  371.75  3170.2 " fill="none"  />
<path d="M 203.0,3299.4 C 253.625  3299.4  321.125  3461.4  371.75  3461.4 " fill="none"  />
<path d="M 203.0,3713.4 C 253.625  3713.4  321.125  3616.2  371.75  3616.2 " fill="none"  />
<path d="M 203.0,3322.8 C 253.625  3322.8  321.125  3922.2  371.75  3922.2 " fill="none"  />
<path d="M 203.0,3731.4 C 253.625  3731.4  321.125  3938.4  371.75  3938.4 " fill="none"  />
<path d="M 577.75,151.2 C 628.375  151.2  695.875  295.2  746.5  295.2 " fill="none"  />
<path d="M 577.75,300.6 C 628.375  300.6  695.875  374.4  746.5  374.4 " fill="none"  />
<path d="M 577.75,669.6 C 628.375  669.6  695.875  747.0  746.5  747.0 " fill="none"  />
<path d="M 577.75,797.4 C 628.375  797.4  695.875  910.8  746.5  910.8 " fill="none"  />
<path d="M 577.75,986.4 C 628.375  986.4  695.875  955.8  746.5  955.8 " fill="none"  />
<path d="M 577.75,1468.8 C 628.375  1468.8  695.875  1422.0  746.5  1422.0 " fill="none"  />
<path d="M 577.75,1575.0 C 628.375  1575.0  695.875  1659.6  746.5  1659.6 " fill="none"  />
<path d="M 577.75,1638.0 C 628.375  1638.0  695.875  1755.0  746.5  1755.0 " fill="none"  />
<path d="M 577.75,2070.0 C 628.375  2070.0  695.875  1771.2  746.5  1771.2 " fill="none"  />
<path d="M 577.75,2111.4 C 628.375  2111.4  695.875  1843.2  746.5  1843.2 " fill="none"  />
<path d="M 577.75,1969.2 C 628.375  1969.2  695.875  1963.8  746.5  1963.8 " fill="none"  />
<path d="M 577.75,1877.4 C 628.375  1877.4  695.875  1976.4  746.5  1976.4 " fill="none"  />
<path d="M 577.75,2144.4 C 628.375  2144.4  695.875  2057.4  746.5  2057.4 " fill="none"  />
<path d="M 577.75,2133.4 C 628.375  2133.4  695.875  2183.4  746.5  2183.4 " fill="none"  />
<path d="M 577.75,2422.8 C 628.375  2422.8  695.875  2224.8  746.5  2224.8 " fill="none"  />
<path d="M 577.75,2327.6 C 628.375  2327.6  695.875  2313.0  746.5  2313.0 " fill="none"  />
<path d="M 577.75,2122.4 C 628.375  2122.4  695.875  2359.8  746.5  2359.8 " fill="none"  />
<path d="M 577.75,2433.8 C 628.375  2433.8  695.875  2466.0  746.5  2466.0 " fill="none"  />
<path d="M 577.75,3938.4 C 628.375  3938.4  695.875  2505.6  746.5  2505.6 " fill="none"  />
<path d="M 577.75,2316.6 C 628.375  2316.6  695.875  2561.4  746.5  2561.4 " fill="none"  />
<path d="M 577.75,2471.4 C 628.375  2471.4  695.875  2579.4  746.5  2579.4 " fill="none"  />
<path d="M 577.75,2851.2 C 628.375  2851.2  695.875  2827.8  746.5  2827.8 " fill="none"  />
<path d="M 577.75,3461.4 C 628.375  3461.4  695.875  2854.8  746.5  2854.8 " fill="none"  />
<path d="M 577.75,2514.6 C 628.375  2514.6  695.875  3049.2  746.5  3049.2 " fill="none"  />
<path d="M 577.75,3148.2 C 628.375  3148.2  695.875  3060.2  746.5  3060.2 " fill="none"  />
<path d="M 577.75,3159.2 C 628.375  3159.2  695.875  3222.0  746.5  3222.0 " fill="none"  />
<path d="M 577.75,3170.2 C 628.375  3170.2  695.875  3233.0  746.5  3233.0 " fill="none"  />
<path d="M 577.75,3061.8 C 628.375  3061.8  695.875  3434.4  746.5  3434.4 " fill="none"  />
<path d="M 577.75,3922.2 C 628.375  3922.2  695.875  3614.4  746.5  3614.4 " fill="none"  />
<path d="M 577.75,3616.2 C 628.375  3616.2  695.875  3808.8  746.5  3808.8 " fill="none"  />
<path d="M 946.25,295.2 C 996.875  295.2  1064.375  0.0  1115.0  0.0 " fill="none"  />
<path d="M 946.25,374.4 C 996.875  374.4  1064.375  187.2  1115.0  187.2 " fill="none"  />
<path d="M 946.25,747.0 C 996.875  747.0  1064.375  658.8  1115.0  658.8 " fill="none"  />
<path d="M 946.25,910.8 C 996.875  910.8  1064.375  792.0  1115.0  792.0 " fill="none"  />
<path d="M 946.25,955.8 C 996.875  955.8  1064.375  918.0  1115.0  918.0 " fill="none"  />
<path d="M 946.25,1422.0 C 996.875  1422.0  1064.375  1384.2  1115.0  1384.2 " fill="none"  />
<path d="M 946.25,1755.0 C 996.875  1755.0  1064.375  1497.6  1115.0  1497.6 " fill="none"  />
<path d="M 946.25,1659.6 C 996.875  1659.6  1064.375  1591.2  1115.0  1591.2 " fill="none"  />
<path d="M 946.25,1963.8 C 996.875  1963.8  1064.375  1814.4  1115.0  1814.4 " fill="none"  />
<path d="M 946.25,1976.4 C 996.875  1976.4  1064.375  1902.6  1115.0  1902.6 " fill="none"  />
<path d="M 946.25,2359.8 C 996.875  2359.8  1064.375  1945.8  1115.0  1945.8 " fill="none"  />
<path d="M 946.25,1843.2 C 996.875  1843.2  1064.375  1956.8  1115.0  1956.8 " fill="none"  />
<path d="M 946.25,1771.2 C 996.875  1771.2  1064.375  1967.8  1115.0  1967.8 " fill="none"  />
<path d="M 946.25,2183.4 C 996.875  2183.4  1064.375  1978.8  1115.0  1978.8 " fill="none"  />
<path d="M 946.25,2057.4 C 996.875  2057.4  1064.375  2003.4  1115.0  2003.4 " fill="none"  />
<path d="M 946.25,2224.8 C 996.875  2224.8  1064.375  2014.4  1115.0  2014.4 " fill="none"  />
<path d="M 946.25,2313.0 C 996.875  2313.0  1064.375  2223.0  1115.0  2223.0 " fill="none"  />
<path d="M 946.25,2561.4 C 996.875  2561.4  1064.375  2354.4  1115.0  2354.4 " fill="none"  />
<path d="M 946.25,3049.2 C 996.875  3049.2  1064.375  2406.6  1115.0  2406.6 " fill="none"  />
<path d="M 946.25,2579.4 C 996.875  2579.4  1064.375  2417.6  1115.0  2417.6 " fill="none"  />
<path d="M 946.25,2466.0 C 996.875  2466.0  1064.375  2525.4  1115.0  2525.4 " fill="none"  />
<path d="M 946.25,2827.8 C 996.875  2827.8  1064.375  2575.8  1115.0  2575.8 " fill="none"  />
<path d="M 946.25,3233.0 C 996.875  3233.0  1064.375  2971.8  1115.0  2971.8 " fill="none"  />
<path d="M 946.25,3434.4 C 996.875  3434.4  1064.375  3036.6  1115.0  3036.6 " fill="none"  />
<path d="M 946.25,3060.2 C 996.875  3060.2  1064.375  3060.0  1115.0  3060.0 " fill="none"  />
<path d="M 946.25,3222.0 C 996.875  3222.0  1064.375  3081.6  1115.0  3081.6 " fill="none"  />
<path d="M 946.25,3614.4 C 996.875  3614.4  1064.375  3279.6  1115.0  3279.6 " fill="none"  />
<path d="M 946.25,3808.8 C 996.875  3808.8  1064.375  3450.6  1115.0  3450.6 " fill="none"  />
<path d="M 946.25,2854.8 C 996.875  2854.8  1064.375  3726.0  1115.0  3726.0 " fill="none"  />
<path d="M 946.25,2505.6 C 996.875  2505.6  1064.375  3868.2  1115.0  3868.2 " fill="none"  />
</g>
<g style="stroke:#bbb; stroke-width:2; "  >
<line y1="151.2" x2="577.75" x1="371.75" y2="151.2"  />
<line y1="95.4" x2="203.0" x1="0" y2="95.4"  />
<line y1="300.6" x2="577.75" x1="371.75" y2="300.6"  />
<line y1="201.6" x2="203.0" x1="0" y2="201.6"  />
<line y1="669.6" x2="577.75" x1="371.75" y2="669.6"  />
<line y1="450.0" x2="203.0" x1="0" y2="450.0"  />
<line y1="797.4" x2="577.75" x1="371.75" y2="797.4"  />
<line y1="734.4" x2="203.0" x1="0" y2="734.4"  />
<line y1="986.4" x2="577.75" x1="371.75" y2="986.4"  />
<line y1="1031.4" x2="203.0" x1="0" y2="1031.4"  />
<line y1="1468.8" x2="577.75" x1="371.75" y2="1468.8"  />
<line y1="1398.6" x2="203.0" x1="0" y2="1398.6"  />
<line y1="1575.0" x2="577.75" x1="371.75" y2="1575.0"  />
<line y1="2345.4" x2="203.0" x1="0" y2="2345.4"  />
<line y1="1638.0" x2="577.75" x1="371.75" y2="1638.0"  />
<line y1="1508.4" x2="203.0" x1="0" y2="1508.4"  />
<line y1="1877.4" x2="577.75" x1="371.75" y2="1877.4"  />
<line y1="2280.6" x2="203.0" x1="0" y2="2280.6"  />
<line y1="1969.2" x2="577.75" x1="371.75" y2="1969.2"  />
<line y1="1953.0" x2="203.0" x1="0" y2="1953.0"  />
<line y1="2070.0" x2="577.75" x1="371.75" y2="2070.0"  />
<line y1="1411.2" x2="203.0" x1="0" y2="1411.2"  />
<line y1="2111.4" x2="577.75" x1="371.75" y2="2111.4"  />
<line y1="1857.8" x2="203.0" x1="0" y2="1857.8"  />
<line y1="2122.4" x2="577.75" x1="371.75" y2="2122.4"  />
<line y1="1846.8" x2="203.0" x1="0" y2="1846.8"  />
<line y1="2133.4" x2="577.75" x1="371.75" y2="2133.4"  />
<line y1="2250.0" x2="203.0" x1="0" y2="2250.0"  />
<line y1="2144.4" x2="577.75" x1="371.75" y2="2144.4"  />
<line y1="1992.6" x2="203.0" x1="0" y2="1992.6"  />
<line y1="2316.6" x2="577.75" x1="371.75" y2="2316.6"  />
<line y1="2431.8" x2="203.0" x1="0" y2="2431.8"  />
<line y1="2327.6" x2="577.75" x1="371.75" y2="2327.6"  />
<line y1="2673.2" x2="203.0" x1="0" y2="2673.2"  />
<line y1="2422.8" x2="577.75" x1="371.75" y2="2422.8"  />
<line y1="2325.6" x2="203.0" x1="0" y2="2325.6"  />
<line y1="2433.8" x2="577.75" x1="371.75" y2="2433.8"  />
<line y1="2662.2" x2="203.0" x1="0" y2="2662.2"  />
<line y1="2471.4" x2="577.75" x1="371.75" y2="2471.4"  />
<line y1="3211.6" x2="203.0" x1="0" y2="3211.6"  />
<line y1="2514.6" x2="577.75" x1="371.75" y2="2514.6"  />
<line y1="2620.8" x2="203.0" x1="0" y2="2620.8"  />
<line y1="2851.2" x2="577.75" x1="371.75" y2="2851.2"  />
<line y1="2568.6" x2="203.0" x1="0" y2="2568.6"  />
<line y1="3061.8" x2="577.75" x1="371.75" y2="3061.8"  />
<line y1="2867.4" x2="203.0" x1="0" y2="2867.4"  />
<line y1="3148.2" x2="577.75" x1="371.75" y2="3148.2"  />
<line y1="3189.6" x2="203.0" x1="0" y2="3189.6"  />
<line y1="3159.2" x2="577.75" x1="371.75" y2="3159.2"  />
<line y1="3200.6" x2="203.0" x1="0" y2="3200.6"  />
<line y1="3170.2" x2="577.75" x1="371.75" y2="3170.2"  />
<line y1="3159.0" x2="203.0" x1="0" y2="3159.0"  />
<line y1="3461.4" x2="577.75" x1="371.75" y2="3461.4"  />
<line y1="3299.4" x2="203.0" x1="0" y2="3299.4"  />
<line y1="3616.2" x2="577.75" x1="371.75" y2="3616.2"  />
<line y1="3713.4" x2="203.0" x1="0" y2="3713.4"  />
<line y1="3922.2" x2="577.75" x1="371.75" y2="3922.2"  />
<line y1="3322.8" x2="203.0" x1="0" y2="3322.8"  />
<line y1="3938.4" x2="577.75" x1="371.75" y2="3938.4"  />
<line y1="3731.4" x2="203.0" x1="0" y2="3731.4"  />
<line y1="295.2" x2="946.25" x1="746.5" y2="295.2"  />
<line y1="374.4" x2="946.25" x1="746.5" y2="374.4"  />
<line y1="747.0" x2="946.25" x1="746.5" y2="747.0"  />
<line y1="910.8" x2="946.25" x1="746.5" y2="910.8"  />
<line y1="955.8" x2="946.25" x1="746.5" y2="955.8"  />
<line y1="1422.0" x2="946.25" x1="746.5" y2="1422.0"  />
<line y1="1659.6" x2="946.25" x1="746.5" y2="1659.6"  />
<line y1="1755.0" x2="946.25" x1="746.5" y2="1755.0"  />
<line y1="1771.2" x2="946.25" x1="746.5" y2="1771.2"  />
<line y1="1843.2" x2="946.25" x1="746.5" y2="1843.2"  />
<line y1="1963.8" x2="946.25" x1="746.5" y2="1963.8"  />
<line y1="1976.4" x2="946.25" x1="746.5" y2="1976.4"  />
<line y1="2057.4" x2="946.25" x1="746.5" y2="2057.4"  />
<line y1="2183.4" x2="946.25" x1="746.5" y2="2183.4"  />
<line y1="2224.8" x2="946.25" x1="746.5" y2="2224.8"  />
<line y1="2313.0" x2="946.25" x1="746.5" y2="2313.0"  />
<line y1="2359.8" x2="946.25" x1="746.5" y2="2359.8"  />
<line y1="2466.0" x2="946.25" x1="746.5" y2="2466.0"  />
<line y1="2505.6" x2="946.25" x1="746.5" y2="2505.6"  />
<line y1="2561.4" x2="946.25" x1="746.5" y2="2561.4"  />
<line y1="2579.4" x2="946.25" x1="746.5" y2="2579.4"  />
<line y1="2827.8" x2="946.25" x1="746.5" y2="2827.8"  />
<line y1="2854.8" x2="946.25" x1="746.5" y2="2854.8"  />
<line y1="3049.2" x2="946.25" x1="746.5" y2="3049.2"  />
<line y1="3060.2" x2="946.25" x1="746.5" y2="3060.2"  />
<line y1="3222.0" x2="946.25" x1="746.5" y2="3222.0"  />
<line y1="3233.0" x2="946.25" x1="746.5" y2="3233.0"  />
<line y1="3434.4" x2="946.25" x1="746.5" y2="3434.4"  />
<line y1="3614.4" x2="946.25" x1="746.5" y2="3614.4"  />
<line y1="3808.8" x2="946.25" x1="746.5" y2="3808.8"  />
<line y1="0.0" x2="1318.0" x1="1115.0" y2="0.0"  />
<line y1="187.2" x2="1318.0" x1="1115.0" y2="187.2"  />
<line y1="658.8" x2="1318.0" x1="1115.0" y2="658.8"  />
<line y1="792.0" x2="1318.0" x1="1115.0" y2="792.0"  />
<line y1="918.0" x2="1318.0" x1="1115.0" y2="918.0"  />
<line y1="1384.2" x2="1318.0" x1="1115.0" y2="1384.2"  />
<line y1="1497.6" x2="1318.0" x1="1115.0" y2="1497.6"  />
<line y1="1591.2" x2="1318.0" x1="1115.0" y2="1591.2"  />
<line y1="1814.4" x2="1318.0" x1="1115.0" y2="1814.4"  />
<line y1="1902.6" x2="1318.0" x1="1115.0" y2="1902.6"  />
<line y1="1945.8" x2="1318.0" x1="1115.0" y2="1945.8"  />
<line y1="1956.8" x2="1318.0" x1="1115.0" y2="1956.8"  />
<line y1="1967.8" x2="1318.0" x1="1115.0" y2="1967.8"  />
<line y1="1978.8" x2="1318.0" x1="1115.0" y2="1978.8"  />
<line y1="2003.4" x2="1318.0" x1="1115.0" y2="2003.4"  />
<line y1="2014.4" x2="1318.0" x1="1115.0" y2="2014.4"  />
<line y1="2223.0" x2="1318.0" x1="1115.0" y2="2223.0"  />
<line y1="2354.4" x2="1318.0" x1="1115.0" y2="2354.4"  />
<line y1="2406.6" x2="1318.0" x1="1115.0" y2="2406.6"  />
<line y1="2417.6" x2="1318.0" x1="1115.0" y2="2417.6"  />
<line y1="2525.4" x2="1318.0" x1="1115.0" y2="2525.4"  />
<line y1="2575.8" x2="1318.0" x1="1115.0" y2="2575.8"  />
<line y1="2971.8" x2="1318.0" x1="1115.0" y2="2971.8"  />
<line y1="3036.6" x2="1318.0" x1="1115.0" y2="3036.6"  />
<line y1="3060.0" x2="1318.0" x1="1115.0" y2="3060.0"  />
<line y1="3081.6" x2="1318.0" x1="1115.0" y2="3081.6"  />
<line y1="3279.6" x2="1318.0" x1="1115.0" y2="3279.6"  />
<line y1="3450.6" x2="1318.0" x1="1115.0" y2="3450.6"  />
<line y1="3726.0" x2="1318.0" x1="1115.0" y2="3726.0"  />
<line y1="3868.2" x2="1318.0" x1="1115.0" y2="3868.2"  />
</g>
<g style="font-size:9px; font-family:Monospace; fill:black; " xml:space="preserve"  >
<g  >
<g  >
<text y="93.4" x="0"  >
2  </text>
<text y="199.6" x="0"  >
5  </text>
<text y="448.0" x="0"  >
9  </text>
<text y="732.4" x="0"  >
13 </text>
<text y="1029.4" x="0"  >
21 </text>
<text y="1396.6" x="0"  >
36 </text>
<text y="1409.2" x="0"  >
37 </text>
<text y="1506.4" x="0"  >
40 </text>
<text y="1844.8" x="0"  >
61 </text>
<text y="1855.8" x="0"  >
62 </text>
<text y="1951.0" x="0"  >
70 </text>
<text y="1990.6" x="0"  >
73 </text>
<text y="2248.0" x="0"  >
87 </text>
<text y="2278.6" x="0"  >
89 </text>
<text y="2323.6" x="0"  >
95 </text>
<text y="2343.4" x="0"  >
96 </text>
<text y="2429.8" x="0"  >
101</text>
<text y="2566.6" x="0"  >
110</text>
<text y="2618.8" x="0"  >
111</text>
<text y="2660.2" x="0"  >
115</text>
<text y="2671.2" x="0"  >
117</text>
<text y="2865.4" x="0"  >
129</text>
<text y="3157.0" x="0"  >
144</text>
<text y="3187.6" x="0"  >
147</text>
<text y="3198.6" x="0"  >
148</text>
<text y="3209.6" x="0"  >
149</text>
<text y="3297.4" x="0"  >
151</text>
<text y="3320.8" x="0"  >
152</text>
<text y="3711.4" x="0"  >
158</text>
<text y="3729.4" x="0"  >
160</text>
</g>
<g  >
<text y="93.4" x="25.0"  >
Jack Hillenbrand    </text>
<text y="199.6" x="25.0"  >
Steve Esposito      </text>
<text y="448.0" x="25.0"  >
Steven Cammisa      </text>
<text y="732.4" x="25.0"  >
Scott Hornung       </text>
<text y="1029.4" x="25.0"  >
Jim DeVona          </text>
<text y="1396.6" x="25.0"  >
Michael Thompson    </text>
<text y="1409.2" x="25.0"  >
Kevin Tripp         </text>
<text y="1506.4" x="25.0"  >
Vanessa Fitts       </text>
<text y="1844.8" x="25.0"  >
Dale Fox            </text>
<text y="1855.8" x="25.0"  >
Dennis Uhlig        </text>
<text y="1951.0" x="25.0"  >
Kathryn Hores       </text>
<text y="1990.6" x="25.0"  >
David Losee         </text>
<text y="2248.0" x="25.0"  >
Alan Hess           </text>
<text y="2278.6" x="25.0"  >
Rachel Parsons      </text>
<text y="2323.6" x="25.0"  >
Kellie Tompkins     </text>
<text y="2343.4" x="25.0"  >
William McGovern    </text>
<text y="2429.8" x="25.0"  >
Randy Templeman     </text>
<text y="2566.6" x="25.0"  >
Vincent Colombo     </text>
<text y="2618.8" x="25.0"  >
Dawn DeVita         </text>
<text y="2660.2" x="25.0"  >
Teal Yajko          </text>
<text y="2671.2" x="25.0"  >
Samantha Riley      </text>
<text y="2865.4" x="25.0"  >
Julie Drozdowski    </text>
<text y="3157.0" x="25.0"  >
Michele Stokstad    </text>
<text y="3187.6" x="25.0"  >
Carolyn Hamlin      </text>
<text y="3198.6" x="25.0"  >
Kelley Hamlin       </text>
<text y="3209.6" x="25.0"  >
Bob Beavan          </text>
<text y="3297.4" x="25.0"  >
Richard Walburger   </text>
<text y="3320.8" x="25.0"  >
Jessica Himmelberger</text>
<text y="3711.4" x="25.0"  >
Linda Emerson       </text>
<text y="3729.4" x="25.0"  >
Dan Dupree          </text>
</g>
<g  >
<text y="93.4" x="156.25"  >
  34:31</text>
<text y="199.6" x="156.25"  >
  35:30</text>
<text y="448.0" x="156.25"  >
  37:48</text>
<text y="732.4" x="156.25"  >
  40:26</text>
<text y="1029.4" x="156.25"  >
  43:11</text>
<text y="1396.6" x="156.25"  >
  46:35</text>
<text y="1409.2" x="156.25"  >
  46:42</text>
<text y="1506.4" x="156.25"  >
  47:36</text>
<text y="1844.8" x="156.25"  >
  50:44</text>
<text y="1855.8" x="156.25"  >
  50:44</text>
<text y="1951.0" x="156.25"  >
  51:43</text>
<text y="1990.6" x="156.25"  >
  52:05</text>
<text y="2248.0" x="156.25"  >
  54:28</text>
<text y="2278.6" x="156.25"  >
  54:45</text>
<text y="2323.6" x="156.25"  >
  55:10</text>
<text y="2343.4" x="156.25"  >
  55:21</text>
<text y="2429.8" x="156.25"  >
  56:09</text>
<text y="2566.6" x="156.25"  >
  57:25</text>
<text y="2618.8" x="156.25"  >
  57:54</text>
<text y="2660.2" x="156.25"  >
  58:17</text>
<text y="2671.2" x="156.25"  >
  58:23</text>
<text y="2865.4" x="156.25"  >
1:00:11</text>
<text y="3157.0" x="156.25"  >
1:02:53</text>
<text y="3187.6" x="156.25"  >
1:03:10</text>
<text y="3198.6" x="156.25"  >
1:03:11</text>
<text y="3209.6" x="156.25"  >
1:03:12</text>
<text y="3297.4" x="156.25"  >
1:04:11</text>
<text y="3320.8" x="156.25"  >
1:04:24</text>
<text y="3711.4" x="156.25"  >
1:08:01</text>
<text y="3729.4" x="156.25"  >
1:08:11</text>
</g>
</g>
<g  >
<g  >
<text y="149.2" x="374.75"  >
1  </text>
<text y="298.6" x="374.75"  >
3  </text>
<text y="667.6" x="374.75"  >
6  </text>
<text y="795.4" x="374.75"  >
9  </text>
<text y="984.4" x="374.75"  >
11 </text>
<text y="1466.8" x="374.75"  >
23 </text>
<text y="1573.0" x="374.75"  >
26 </text>
<text y="1636.0" x="374.75"  >
28 </text>
<text y="1875.4" x="374.75"  >
36 </text>
<text y="1967.2" x="374.75"  >
41 </text>
<text y="2068.0" x="374.75"  >
49 </text>
<text y="2109.4" x="374.75"  >
52 </text>
<text y="2120.4" x="374.75"  >
53 </text>
<text y="2131.4" x="374.75"  >
54 </text>
<text y="2142.4" x="374.75"  >
58 </text>
<text y="2314.6" x="374.75"  >
67 </text>
<text y="2325.6" x="374.75"  >
68 </text>
<text y="2420.8" x="374.75"  >
70 </text>
<text y="2431.8" x="374.75"  >
71 </text>
<text y="2469.4" x="374.75"  >
76 </text>
<text y="2512.6" x="374.75"  >
81 </text>
<text y="2849.2" x="374.75"  >
88 </text>
<text y="3059.8" x="374.75"  >
90 </text>
<text y="3146.2" x="374.75"  >
93 </text>
<text y="3157.2" x="374.75"  >
94 </text>
<text y="3168.2" x="374.75"  >
95 </text>
<text y="3459.4" x="374.75"  >
100</text>
<text y="3614.2" x="374.75"  >
102</text>
<text y="3920.2" x="374.75"  >
106</text>
<text y="3936.4" x="374.75"  >
108</text>
</g>
<g  >
<text y="149.2" x="399.75"  >
Jack Hillenbrand    </text>
<text y="298.6" x="399.75"  >
Steve Esposito      </text>
<text y="667.6" x="399.75"  >
Steven Cammisa      </text>
<text y="795.4" x="399.75"  >
Scott Hornung       </text>
<text y="984.4" x="399.75"  >
Jim DeVona          </text>
<text y="1466.8" x="399.75"  >
Michael Thompson    </text>
<text y="1573.0" x="399.75"  >
William McGovern    </text>
<text y="1636.0" x="399.75"  >
Vanessa Fitts       </text>
<text y="1875.4" x="399.75"  >
Rachel Parsons      </text>
<text y="1967.2" x="399.75"  >
Kathryn Hores       </text>
<text y="2068.0" x="399.75"  >
Kevin Tripp         </text>
<text y="2109.4" x="399.75"  >
Dennis Uhlig        </text>
<text y="2120.4" x="399.75"  >
Dale Fox            </text>
<text y="2131.4" x="399.75"  >
Alan Hess           </text>
<text y="2142.4" x="399.75"  >
David Losee         </text>
<text y="2314.6" x="399.75"  >
Randy Templeman     </text>
<text y="2325.6" x="399.75"  >
Samantha Riley      </text>
<text y="2420.8" x="399.75"  >
Kellie Tompkins     </text>
<text y="2431.8" x="399.75"  >
Teal Yajko          </text>
<text y="2469.4" x="399.75"  >
Bob Beavan          </text>
<text y="2512.6" x="399.75"  >
Dawn DeVita         </text>
<text y="2849.2" x="399.75"  >
Vincent Colombo     </text>
<text y="3059.8" x="399.75"  >
Julie Drozdowski    </text>
<text y="3146.2" x="399.75"  >
Carolyn Hamlin      </text>
<text y="3157.2" x="399.75"  >
Kelley Hamlin       </text>
<text y="3168.2" x="399.75"  >
Michele Stokstad    </text>
<text y="3459.4" x="399.75"  >
Richard Walburger   </text>
<text y="3614.2" x="399.75"  >
Linda Emerson       </text>
<text y="3920.2" x="399.75"  >
Jessica Himmelberger</text>
<text y="3936.4" x="399.75"  >
Dan Dupree          </text>
</g>
<g  >
<text y="149.2" x="531.0"  >
  35:02</text>
<text y="298.6" x="531.0"  >
  36:25</text>
<text y="667.6" x="531.0"  >
  39:50</text>
<text y="795.4" x="531.0"  >
  41:01</text>
<text y="984.4" x="531.0"  >
  42:46</text>
<text y="1466.8" x="531.0"  >
  47:14</text>
<text y="1573.0" x="531.0"  >
  48:13</text>
<text y="1636.0" x="531.0"  >
  48:48</text>
<text y="1875.4" x="531.0"  >
  51:01</text>
<text y="1967.2" x="531.0"  >
  51:52</text>
<text y="2068.0" x="531.0"  >
  52:48</text>
<text y="2109.4" x="531.0"  >
  53:11</text>
<text y="2120.4" x="531.0"  >
  53:12</text>
<text y="2131.4" x="531.0"  >
  53:13</text>
<text y="2142.4" x="531.0"  >
  53:27</text>
<text y="2314.6" x="531.0"  >
  55:05</text>
<text y="2325.6" x="531.0"  >
  55:07</text>
<text y="2420.8" x="531.0"  >
  56:04</text>
<text y="2431.8" x="531.0"  >
  56:07</text>
<text y="2469.4" x="531.0"  >
  56:31</text>
<text y="2512.6" x="531.0"  >
  56:55</text>
<text y="2849.2" x="531.0"  >
1:00:02</text>
<text y="3059.8" x="531.0"  >
1:01:59</text>
<text y="3146.2" x="531.0"  >
1:02:47</text>
<text y="3157.2" x="531.0"  >
1:02:48</text>
<text y="3168.2" x="531.0"  >
1:02:55</text>
<text y="3459.4" x="531.0"  >
1:05:41</text>
<text y="3614.2" x="531.0"  >
1:07:07</text>
<text y="3920.2" x="531.0"  >
1:09:57</text>
<text y="3936.4" x="531.0"  >
1:10:06</text>
</g>
</g>
<g  >
<g  >
<text y="293.2" x="749.5"  >
1 </text>
<text y="372.4" x="749.5"  >
3 </text>
<text y="745.0" x="749.5"  >
7 </text>
<text y="908.8" x="749.5"  >
9 </text>
<text y="953.8" x="749.5"  >
10</text>
<text y="1420.0" x="749.5"  >
21</text>
<text y="1657.6" x="749.5"  >
32</text>
<text y="1753.0" x="749.5"  >
36</text>
<text y="1769.2" x="749.5"  >
37</text>
<text y="1841.2" x="749.5"  >
42</text>
<text y="1961.8" x="749.5"  >
48</text>
<text y="1974.4" x="749.5"  >
49</text>
<text y="2055.4" x="749.5"  >
51</text>
<text y="2181.4" x="749.5"  >
53</text>
<text y="2222.8" x="749.5"  >
55</text>
<text y="2311.0" x="749.5"  >
58</text>
<text y="2357.8" x="749.5"  >
60</text>
<text y="2464.0" x="749.5"  >
66</text>
<text y="2503.6" x="749.5"  >
67</text>
<text y="2559.4" x="749.5"  >
69</text>
<text y="2577.4" x="749.5"  >
72</text>
<text y="2825.8" x="749.5"  >
80</text>
<text y="2852.8" x="749.5"  >
82</text>
<text y="3047.2" x="749.5"  >
87</text>
<text y="3058.2" x="749.5"  >
88</text>
<text y="3220.0" x="749.5"  >
89</text>
<text y="3231.0" x="749.5"  >
90</text>
<text y="3432.4" x="749.5"  >
93</text>
<text y="3612.4" x="749.5"  >
95</text>
<text y="3806.8" x="749.5"  >
98</text>
</g>
<g  >
<text y="293.2" x="768.25"  >
Jack Hillenbrand    </text>
<text y="372.4" x="768.25"  >
Steve Esposito      </text>
<text y="745.0" x="768.25"  >
Steven Cammisa      </text>
<text y="908.8" x="768.25"  >
Scott Hornung       </text>
<text y="953.8" x="768.25"  >
Jim DeVona          </text>
<text y="1420.0" x="768.25"  >
Michael Thompson    </text>
<text y="1657.6" x="768.25"  >
William McGovern    </text>
<text y="1753.0" x="768.25"  >
Vanessa Fitts       </text>
<text y="1769.2" x="768.25"  >
Kevin Tripp         </text>
<text y="1841.2" x="768.25"  >
Dennis Uhlig        </text>
<text y="1961.8" x="768.25"  >
Kathryn Hores       </text>
<text y="1974.4" x="768.25"  >
Rachel Parsons      </text>
<text y="2055.4" x="768.25"  >
David Losee         </text>
<text y="2181.4" x="768.25"  >
Alan Hess           </text>
<text y="2222.8" x="768.25"  >
Kellie Tompkins     </text>
<text y="2311.0" x="768.25"  >
Samantha Riley      </text>
<text y="2357.8" x="768.25"  >
Dale Fox            </text>
<text y="2464.0" x="768.25"  >
Teal Yajko          </text>
<text y="2503.6" x="768.25"  >
Dan Dupree          </text>
<text y="2559.4" x="768.25"  >
Randy Templeman     </text>
<text y="2577.4" x="768.25"  >
Bob Beavan          </text>
<text y="2825.8" x="768.25"  >
Vincent Colombo     </text>
<text y="2852.8" x="768.25"  >
Richard Walburger   </text>
<text y="3047.2" x="768.25"  >
Dawn DeVita         </text>
<text y="3058.2" x="768.25"  >
Carolyn Hamlin      </text>
<text y="3220.0" x="768.25"  >
Kelley Hamlin       </text>
<text y="3231.0" x="768.25"  >
Michele Stokstad    </text>
<text y="3432.4" x="768.25"  >
Julie Drozdowski    </text>
<text y="3612.4" x="768.25"  >
Jessica Himmelberger</text>
<text y="3806.8" x="768.25"  >
Linda Emerson       </text>
</g>
<g  >
<text y="293.2" x="899.5"  >
  36:22</text>
<text y="372.4" x="899.5"  >
  37:06</text>
<text y="745.0" x="899.5"  >
  40:33</text>
<text y="908.8" x="899.5"  >
  42:04</text>
<text y="953.8" x="899.5"  >
  42:29</text>
<text y="1420.0" x="899.5"  >
  46:48</text>
<text y="1657.6" x="899.5"  >
  49:00</text>
<text y="1753.0" x="899.5"  >
  49:53</text>
<text y="1769.2" x="899.5"  >
  50:02</text>
<text y="1841.2" x="899.5"  >
  50:42</text>
<text y="1961.8" x="899.5"  >
  51:49</text>
<text y="1974.4" x="899.5"  >
  51:56</text>
<text y="2055.4" x="899.5"  >
  52:41</text>
<text y="2181.4" x="899.5"  >
  53:51</text>
<text y="2222.8" x="899.5"  >
  54:14</text>
<text y="2311.0" x="899.5"  >
  55:03</text>
<text y="2357.8" x="899.5"  >
  55:29</text>
<text y="2464.0" x="899.5"  >
  56:28</text>
<text y="2503.6" x="899.5"  >
  56:50</text>
<text y="2559.4" x="899.5"  >
  57:21</text>
<text y="2577.4" x="899.5"  >
  57:31</text>
<text y="2825.8" x="899.5"  >
  59:49</text>
<text y="2852.8" x="899.5"  >
1:00:04</text>
<text y="3047.2" x="899.5"  >
1:01:52</text>
<text y="3058.2" x="899.5"  >
1:01:52</text>
<text y="3220.0" x="899.5"  >
1:03:28</text>
<text y="3231.0" x="899.5"  >
1:03:29</text>
<text y="3432.4" x="899.5"  >
1:05:26</text>
<text y="3612.4" x="899.5"  >
1:07:06</text>
<text y="3806.8" x="899.5"  >
1:08:54</text>
</g>
</g>
<g  >
<g  >
<text y="-2.0" x="1118.0"  >
1  </text>
<text y="185.2" x="1118.0"  >
2  </text>
<text y="656.8" x="1118.0"  >
7  </text>
<text y="790.0" x="1118.0"  >
10 </text>
<text y="916.0" x="1118.0"  >
14 </text>
<text y="1382.2" x="1118.0"  >
28 </text>
<text y="1495.6" x="1118.0"  >
33 </text>
<text y="1589.2" x="1118.0"  >
37 </text>
<text y="1812.4" x="1118.0"  >
43 </text>
<text y="1900.6" x="1118.0"  >
46 </text>
<text y="1943.8" x="1118.0"  >
49 </text>
<text y="1954.8" x="1118.0"  >
50 </text>
<text y="1965.8" x="1118.0"  >
51 </text>
<text y="1976.8" x="1118.0"  >
52 </text>
<text y="2001.4" x="1118.0"  >
57 </text>
<text y="2012.4" x="1118.0"  >
58 </text>
<text y="2221.0" x="1118.0"  >
66 </text>
<text y="2352.4" x="1118.0"  >
74 </text>
<text y="2404.6" x="1118.0"  >
79 </text>
<text y="2415.6" x="1118.0"  >
81 </text>
<text y="2523.4" x="1118.0"  >
92 </text>
<text y="2573.8" x="1118.0"  >
95 </text>
<text y="2969.8" x="1118.0"  >
104</text>
<text y="3034.6" x="1118.0"  >
106</text>
<text y="3058.0" x="1118.0"  >
107</text>
<text y="3079.6" x="1118.0"  >
108</text>
<text y="3277.6" x="1118.0"  >
112</text>
<text y="3448.6" x="1118.0"  >
118</text>
<text y="3724.0" x="1118.0"  >
123</text>
<text y="3866.2" x="1118.0"  >
125</text>
</g>
<g  >
<text y="-2.0" x="1143.0"  >
Jack Hillenbrand    </text>
<text y="185.2" x="1143.0"  >
Steve Esposito      </text>
<text y="656.8" x="1143.0"  >
Steven Cammisa      </text>
<text y="790.0" x="1143.0"  >
Scott Hornung       </text>
<text y="916.0" x="1143.0"  >
Jim DeVona          </text>
<text y="1382.2" x="1143.0"  >
Michael Thompson    </text>
<text y="1495.6" x="1143.0"  >
Vanessa Fitts       </text>
<text y="1589.2" x="1143.0"  >
William McGovern    </text>
<text y="1812.4" x="1143.0"  >
Kathryn Hores       </text>
<text y="1900.6" x="1143.0"  >
Rachel Parsons      </text>
<text y="1943.8" x="1143.0"  >
Dale Fox            </text>
<text y="1954.8" x="1143.0"  >
Dennis Uhlig        </text>
<text y="1965.8" x="1143.0"  >
Kevin Tripp         </text>
<text y="1976.8" x="1143.0"  >
Alan Hess           </text>
<text y="2001.4" x="1143.0"  >
David Losee         </text>
<text y="2012.4" x="1143.0"  >
Kellie Tompkins     </text>
<text y="2221.0" x="1143.0"  >
Samantha Riley      </text>
<text y="2352.4" x="1143.0"  >
Randy Templeman     </text>
<text y="2404.6" x="1143.0"  >
Dawn DeVita         </text>
<text y="2415.6" x="1143.0"  >
Bob Beavan          </text>
<text y="2523.4" x="1143.0"  >
Teal Yajko          </text>
<text y="2573.8" x="1143.0"  >
Vincent Colombo     </text>
<text y="2969.8" x="1143.0"  >
Michele Stokstad    </text>
<text y="3034.6" x="1143.0"  >
Julie Drozdowski    </text>
<text y="3058.0" x="1143.0"  >
Carolyn Hamlin      </text>
<text y="3079.6" x="1143.0"  >
Kelley Hamlin       </text>
<text y="3277.6" x="1143.0"  >
Jessica Himmelberger</text>
<text y="3448.6" x="1143.0"  >
Linda Emerson       </text>
<text y="3724.0" x="1143.0"  >
Richard Walburger   </text>
<text y="3866.2" x="1143.0"  >
Dan Dupree          </text>
</g>
<g  >
<text y="-2.0" x="1274.25"  >
  33:38</text>
<text y="185.2" x="1274.25"  >
  35:22</text>
<text y="656.8" x="1274.25"  >
  39:44</text>
<text y="790.0" x="1274.25"  >
  40:58</text>
<text y="916.0" x="1274.25"  >
  42:08</text>
<text y="1382.2" x="1274.25"  >
  46:27</text>
<text y="1495.6" x="1274.25"  >
  47:30</text>
<text y="1589.2" x="1274.25"  >
  48:22</text>
<text y="1812.4" x="1274.25"  >
  50:26</text>
<text y="1900.6" x="1274.25"  >
  51:15</text>
<text y="1943.8" x="1274.25"  >
  51:39</text>
<text y="1954.8" x="1274.25"  >
  51:39</text>
<text y="1965.8" x="1274.25"  >
  51:40</text>
<text y="1976.8" x="1274.25"  >
  51:49</text>
<text y="2001.4" x="1274.25"  >
  52:11</text>
<text y="2012.4" x="1274.25"  >
  52:12</text>
<text y="2221.0" x="1274.25"  >
  54:13</text>
<text y="2352.4" x="1274.25"  >
  55:26</text>
<text y="2404.6" x="1274.25"  >
  55:55</text>
<text y="2415.6" x="1274.25"  >
  55:57</text>
<text y="2523.4" x="1274.25"  >
  57:01</text>
<text y="2573.8" x="1274.25"  >
  57:29</text>
<text y="2969.8" x="1274.25"  >
1:01:09</text>
<text y="3034.6" x="1274.25"  >
1:01:45</text>
<text y="3058.0" x="1274.25"  >
1:01:58</text>
<text y="3079.6" x="1274.25"  >
1:02:10</text>
<text y="3277.6" x="1274.25"  >
1:04:00</text>
<text y="3448.6" x="1274.25"  >
1:05:35</text>
<text y="3724.0" x="1274.25"  >
1:08:08</text>
<text y="3866.2" x="1274.25"  >
1:09:27</text>
</g>
</g>
</g>
</svg>

